<?xml version="1.0" encoding="UTF-8" standalone="no"?>
<!-- Created with Inkscape (http://www.inkscape.org/) -->

<svg
   width="100.71547mm"
   height="135.46666mm"
   viewBox="0 0 100.71547 135.46666"
   version="1.1"
   id="svg945"
   xml:space="preserve"
   inkscape:version="1.2 (dc2aedaf03, 2022-05-15)"
   sodipodi:docname="Spiked hair.svg"
   xmlns:inkscape="http://www.inkscape.org/namespaces/inkscape"
   xmlns:sodipodi="http://sodipodi.sourceforge.net/DTD/sodipodi-0.dtd"
   xmlns="http://www.w3.org/2000/svg"
   xmlns:svg="http://www.w3.org/2000/svg"
   xmlns:rdf="http://www.w3.org/1999/02/22-rdf-syntax-ns#"
   xmlns:cc="http://creativecommons.org/ns#"
   xmlns:dc="http://purl.org/dc/elements/1.1/"><title
     id="title967">Spiked hair</title><sodipodi:namedview
     id="namedview947"
     pagecolor="#ffffff"
     bordercolor="#666666"
     borderopacity="1.0"
     inkscape:showpageshadow="2"
     inkscape:pageopacity="0.0"
     inkscape:pagecheckerboard="0"
     inkscape:deskcolor="#d1d1d1"
     inkscape:document-units="mm"
     showgrid="false"
     inkscape:zoom="0.58885382"
     inkscape:cx="236.9009"
     inkscape:cy="371.90894"
     inkscape:window-width="1536"
     inkscape:window-height="793"
     inkscape:window-x="-8"
     inkscape:window-y="-8"
     inkscape:window-maximized="1"
     inkscape:current-layer="layer1" /><defs
     id="defs942" /><g
     inkscape:label="Lager 1"
     inkscape:groupmode="layer"
     id="layer1"
     transform="translate(-42.485073,-50.437623)"><path
       style="fill:#8A2BE2;stroke-width:0.264583"
       d="m 42.608788,185.72355 c 0.190996,-0.0764 0.419199,-0.067 0.507118,0.0209 0.08792,0.0879 -0.06835,0.15045 -0.347265,0.13897 -0.308225,-0.0127 -0.37092,-0.0754 -0.159853,-0.15986 z m 1.259804,-0.11551 c 0.08211,-0.13286 0.260345,-0.17291 0.396083,-0.089 0.135738,0.0839 0.354766,-0.12252 0.486729,-0.4587 0.475201,-1.21059 2.342896,-2.27834 6.37366,-3.64382 4.399515,-1.49038 7.520347,-3.00686 10.892683,-5.29299 2.932692,-1.98808 4.855186,-3.69896 6.996636,-6.22651 3.044166,-3.59301 3.806513,-5.50044 3.806513,-9.52409 0,-3.81529 -0.640667,-6.08008 -2.878262,-10.17479 -1.839113,-3.3655 -2.639533,-5.26942 -3.870613,-9.20684 -0.652616,-2.0873 -0.716677,-2.18282 -1.463958,-2.18282 -1.392901,0 -2.734021,-1.53059 -3.8383,-4.38057 -0.53082,-1.36997 -1.323459,-2.93908 -1.761418,-3.48691 -0.966203,-1.20859 -1.226725,-1.82213 -1.702012,-4.00833 -0.558593,-2.56939 -1.140446,-3.63237 -3.56622,-6.51505 -1.225632,-1.45649 -2.483476,-3.06383 -2.795209,-3.57188 -0.836421,-1.36315 -1.375443,-3.54127 -1.512256,-6.11084 -0.101433,-1.90508 -0.03989,-2.41046 0.377022,-3.09601 0.660847,-1.08668 1.945657,-1.7345 3.07614,-1.55105 0.992182,0.16101 1.099944,-0.0922 0.566931,-1.33201 -0.174988,-0.40703 -0.327081,-0.76316 -0.33799,-0.79141 -0.0109,-0.0283 -0.903432,0.18063 -1.98339,0.46416 -1.925734,0.50559 -2.916714,0.48458 -2.916714,-0.0618 0,-0.15115 0.341272,-0.70868 0.758381,-1.23894 1.11028,-1.41148 2.386374,-3.777204 3.054077,-5.661884 0.321942,-0.90873 0.793951,-2.04774 1.048904,-2.53114 0.357981,-0.67874 0.393549,-0.96325 0.156173,-1.24927 -0.169059,-0.2037 -0.408591,-0.81913 -0.532295,-1.36761 -0.216177,-0.95851 -0.176612,-1.04166 1.018361,-2.14017 1.129704,-1.03851 1.177877,-1.12917 0.527338,-0.99251 -1.341128,0.28173 -2.062189,0.66155 -2.062189,1.08625 0,0.35656 -0.255721,0.40353 -1.607463,0.29526 -0.884105,-0.0708 -1.67272,-0.19399 -1.752478,-0.27375 -0.330675,-0.33068 0.22689,-0.98321 0.966513,-1.13113 1.073543,-0.21471 1.551093,-0.79573 1.009139,-1.22779 -0.222462,-0.17735 -1.162864,-0.91025 -2.089781,-1.62866 -0.926918,-0.71841 -2.102023,-1.73044 -2.611346,-2.24896 l -0.926042,-0.94276 1.5875,-0.16972 c 0.873125,-0.0933 2.337553,-0.18264 3.254285,-0.19844 2.451346,-0.0422 3.757173,-0.88387 3.757173,-2.4216 0,-0.35324 -0.592474,-1.15205 -1.533768,-2.06791 -1.695112,-1.64931 -5.874565,-6.48307 -5.874565,-6.79425 0,-0.10858 0.744141,-0.1164 1.653646,-0.0174 2.810942,0.30603 6.81302,0.41959 6.81302,0.19332 0,-0.11832 -0.242654,-0.91838 -0.539231,-1.7779 -0.733833,-2.12677 -1.635813,-5.84178 -1.530834,-6.3051 0.0676,-0.29838 0.2253,-0.26252 0.747149,0.1699 0.372252,0.30847 0.531219,0.59403 0.363582,0.65314 -0.333441,0.11756 0.189765,3.41936 0.67342,4.24976 0.36091,0.61966 0.351692,0.45669 -0.110916,-1.96085 -0.469826,-2.45527 -0.452863,-2.20609 -0.150167,-2.20609 0.135716,0 0.326636,0.26789 0.42427,0.59532 0.347451,1.16521 2.321089,5.10307 2.851073,5.68854 0.57222,0.63212 1.504987,0.80666 1.504987,0.28161 0,-0.17254 -0.453839,-0.85715 -1.00853,-1.52136 -1.310193,-1.56887 -2.695636,-3.60789 -2.695636,-3.9673 0,-1.05411 2.304989,1.44965 4.227848,4.59243 0.349642,0.57147 0.679474,0.90776 0.732959,0.7473 0.05348,-0.16045 -0.40055,-1.021 -1.008964,-1.91233 -1.254107,-1.83727 -2.891473,-4.97589 -2.892695,-5.54492 -5.29e-4,-0.2086 -0.249862,-1.08072 -0.554252,-1.93806 -0.30439,-0.857339 -0.484777,-1.627455 -0.400862,-1.71137 0.08391,-0.08392 0.802108,0.278696 1.595988,0.805802 1.410848,0.936751 5.245118,2.186238 5.750456,1.873918 0.132866,-0.0821 0.178951,-0.586096 0.10241,-1.119958 -0.07654,-0.533863 -0.261956,-1.804097 -0.412036,-2.822743 -0.458988,-3.115342 -0.621739,-6.217708 -0.326186,-6.217708 0.566298,0 1.038117,1.284568 1.348055,3.670203 0.273063,2.10181 1.963473,9.572956 2.551911,11.278756 0.382191,1.10791 -0.933331,-0.7822 -1.772764,-2.54708 -0.830389,-1.74585 -0.838729,-1.75342 -1.95707,-1.77587 -0.61772,-0.0124 -1.787159,-0.24672 -2.598755,-0.52071 -0.811594,-0.273994 -1.475627,-0.435014 -1.475627,-0.357825 0,0.07719 0.45384,0.683785 1.008531,1.347995 0.554694,0.66421 1.387639,1.76417 1.850991,2.44436 0.463351,0.68019 1.115991,1.4541 1.450308,1.71979 0.869481,0.69102 2.814256,2.93343 2.136031,2.46295 -2.765282,-1.91829 -4.751413,-4.12626 -6.235239,-6.93169 -0.768882,-1.453701 -1.940123,-2.799571 -2.205437,-2.534259 -0.201433,0.201433 0.660186,1.901909 2.251424,4.443379 0.683342,1.09141 2.2347,3.65125 3.447465,5.68854 2.921974,4.90855 3.906218,6.31055 7.065796,10.06488 2.700237,3.20852 4.575963,5.16467 4.575963,4.77216 0,-0.11866 -0.446339,-0.94568 -0.991865,-1.83785 -1.005792,-1.64488 -2.517822,-4.94749 -2.34447,-5.12084 0.05208,-0.0521 0.71687,0.8853 1.477309,2.08306 1.693571,2.66753 3.77376,5.504 4.041838,5.51131 0.397349,0.0108 0.164198,-0.5431 -1.685382,-4.0042 -2.18309,-4.0852 -3.176791,-6.93494 -5.130617,-14.71368 -1.188432,-4.73148 -1.612958,-5.994003 -2.669011,-7.937496 -1.895684,-3.488696 -2.799212,-5.394749 -2.635083,-5.558878 0.08123,-0.08123 0.185496,-0.09809 0.231693,-0.03746 0.0462,0.06063 0.671274,0.88281 1.389062,1.827059 2.014837,2.650517 2.230617,2.823479 2.231776,1.788913 2.65e-4,-0.327422 0.313585,-1.726406 0.696034,-3.108854 0.382453,-1.382448 0.752854,-2.840964 0.823114,-3.241146 0.07026,-0.400182 0.246033,-0.727604 0.390607,-0.727604 0.144573,0 0.192005,0.184645 0.105405,0.410323 -0.30302,0.789658 -0.515792,7.706474 -0.242261,7.875524 0.258884,0.159999 0.607684,-3.7843 0.607684,-6.871798 0,-1.23766 0.06601,-1.414049 0.529167,-1.414049 0.47834,0 0.529167,0.176389 0.529167,1.836468 0,1.010058 0.105473,1.901654 0.234384,1.981326 0.12891,0.07967 0.444351,-0.746739 0.700979,-1.836469 l 0.466592,-1.981325 h 1.018815 c 0.560348,0 1.018813,0.05357 1.018813,0.119041 0,0.06547 -0.416568,0.809614 -0.925708,1.653646 -0.94868,1.572681 -1.881331,3.975134 -1.637745,4.218722 0.07496,0.07496 -0.151032,0.981072 -0.502208,2.013577 -0.794639,2.336334 -0.820301,4.3947 -0.0828,6.64129 0.565327,1.7221 2.142606,3.91027 2.535444,3.51743 0.118877,-0.11888 0.216138,-2.29571 0.216138,-4.83741 0,-5.421747 0.319889,-4.717843 0.557056,1.22579 0.126315,3.16552 0.312894,4.64424 0.817907,6.48229 0.359844,1.30968 0.718608,2.44078 0.797253,2.51354 0.07865,0.0728 0.06483,-0.52255 -0.0307,-1.32292 -0.233137,-1.95322 -0.783682,-14.256311 -0.731972,-16.357497 0.02265,-0.920218 0.168619,-1.872718 0.324387,-2.116666 0.209452,-0.328023 0.242535,0.02195 0.127029,1.343756 -0.157006,1.796696 0.252505,5.109191 0.66299,5.362886 0.632122,0.390672 0.494808,-6.277742 -0.200895,-9.756265 -0.117698,-0.588487 -0.06622,-0.742895 0.216471,-0.649345 0.447934,0.148231 0.711393,1.899095 0.748639,4.975218 0.02747,2.269065 0.308898,3.386733 0.637288,2.530963 0.08945,-0.233102 0.243195,-2.029022 0.341654,-3.990934 0.132911,-2.64839 0.267134,-3.567112 0.521147,-3.567112 0.219215,0 0.374243,0.451499 0.43152,1.256771 l 0.08939,1.256771 0.376857,-1.256771 c 0.207269,-0.691224 0.533021,-1.256771 0.723894,-1.256771 0.397386,0 0.284565,0.624109 -0.526118,2.910417 -0.828115,2.33546 -0.924568,7.3497 -0.208146,10.820299 0.31228,1.51278 0.847196,3.41778 1.188707,4.23333 0.341511,0.81556 1.000205,2.85205 1.463762,4.52554 0.463561,1.67349 1.021329,3.68914 1.239486,4.47924 0.288822,1.04601 0.461714,1.33372 0.635989,1.05833 0.359381,-0.56788 0.295432,-2.6892 -0.116239,-3.856 -0.605086,-1.71499 -0.747395,-3.59727 -0.441103,-5.8343 0.282496,-2.06324 2.849962,-10.203779 4.967031,-15.748726 l 0.98815,-2.58813 h 0.996676 c 0.82981,0 0.99667,0.09121 0.99667,0.544782 0,0.302316 0.11991,0.470676 0.26941,0.378278 0.33488,-0.206966 0.16835,1.269708 -0.26889,2.384232 -0.94055,2.397523 -2.246726,7.084377 -2.92286,10.487884 -0.992545,4.99623 -1.31317,7.87193 -1.279123,11.47253 0.02708,2.86377 0.03235,2.88756 0.328559,1.48449 0.258191,-1.22298 0.303028,-0.54515 0.315024,4.7625 0.01537,6.80477 0.219609,8.24638 1.719093,12.13467 0.804307,2.08564 1.543117,3.19386 1.121797,1.6827 -0.3629,-1.30162 -0.24081,-12.98005 0.15859,-15.16957 0.56826,-3.11518 0.71081,-3.2956 1.09239,-1.38262 0.18213,0.91305 0.43415,1.72375 0.56004,1.80156 0.28473,0.17597 0.28098,-0.1172 -0.0289,-2.26157 -0.46829,-3.24029 0.90525,-12.06704 2.55362,-16.41025 0.35969,-0.947736 0.98263,-2.740343 1.3843,-3.983568 0.94347,-2.920188 1.43723,-3.783931 1.20344,-2.105215 -0.0912,0.654844 -0.34098,1.888306 -0.55507,2.741028 -0.21409,0.852722 -0.34815,1.864753 -0.29791,2.248958 0.0756,0.578166 0.17161,0.447765 0.55703,-0.756653 0.5761,-1.800274 1.02318,-5.390044 0.68642,-5.511448 -0.14432,-0.05203 -0.14689,-0.266526 -0.006,-0.529166 0.12999,-0.242923 0.31764,-1.03699 0.417,-1.764594 0.26993,-1.976779 0.38679,-2.248958 0.96557,-2.248958 0.37903,0 0.490853,0.131374 0.39412,0.463021 -0.12659,0.434066 -0.68798,3.21484 -1.6425,8.135937 -0.2258,1.164167 -0.80774,3.366818 -1.29318,4.894788 -0.9658,3.03987 -1.26869,4.47294 -2.57243,12.17084 -0.74683,4.40961 -0.8691,5.7473 -0.84142,9.20509 0.0295,3.68888 0.13481,4.60555 0.48837,4.25198 0.0687,-0.0687 0.49284,-1.90422 0.94259,-4.07899 0.85908,-4.15414 1.77487,-8.51985 3.14055,-14.97148 0.83595,-3.94909 1.60105,-6.67741 1.813083,-6.46537 0.0649,0.0649 -0.0252,0.96695 -0.200243,2.0046 -0.17502,1.03765 -0.2557,1.94917 -0.17927,2.02559 0.21881,0.21882 5.094373,-10.09255 5.586613,-11.815173 0.10395,-0.363802 0.73633,-1.822318 1.40528,-3.241146 1.04028,-2.206407 1.30796,-2.579687 1.84987,-2.579687 0.71568,0 0.6835,0.290632 -0.25533,2.30628 -0.86922,1.866194 -0.41567,1.727584 1.11784,-0.341623 l 1.45521,-1.963552 1.38906,-5.52e-4 c 0.76398,-3.04e-4 1.38813,0.08874 1.387,0.197884 -10e-4,0.109141 -0.79534,1.090063 -1.7649,2.179826 -2.87604,3.232604 -7.5478,9.170682 -9.88994,12.570693 -1.914663,2.77945 -2.314953,3.57032 -3.213043,6.34817 -1.01502,3.13956 -1.89942,7.27868 -1.61099,7.53971 0.0821,0.0743 0.19852,-0.002 0.25879,-0.17007 0.45288,-1.26101 2.60004,-4.32738 6.548673,-9.35218 3.79744,-4.83242 9.56154,-14.10689 11.55183,-18.586982 0.18529,-0.417064 0.53326,-0.727604 0.81532,-0.727604 0.47705,0 0.47659,0.03036 -0.015,0.993976 -0.2789,0.546687 -0.74702,1.724851 -1.04028,2.618142 -0.29325,0.893291 -0.93068,2.222508 -1.41651,2.953815 -0.48584,0.731307 -1.39378,2.268061 -2.01766,3.415009 -0.62388,1.146948 -1.67507,2.733954 -2.33598,3.526684 -1.03168,1.23746 -2.95382,3.90334 -5.02368,6.96752 -1.10311,1.63299 -2.26679,3.86652 -2.0145,3.86652 0.14171,0 0.76175,-0.65339 1.37785,-1.45197 0.6161,-0.79859 1.49379,-1.68647 1.9504,-1.97308 0.45663,-0.28661 1.30647,-1.20111 1.88856,-2.03221 0.58208,-0.83111 1.63918,-2.16404 2.3491,-2.96206 0.70993,-0.79803 1.69501,-2.29601 2.18907,-3.32884 0.51704,-1.080891 0.83339,-1.541007 0.74538,-1.084132 -0.17768,0.922332 -1.41664,3.583802 -2.24782,4.828642 -0.77964,1.16764 -0.28716,1.08342 1.0066,-0.17213 0.62393,-0.60551 1.141,-1.39829 1.2511,-1.91823 0.10321,-0.48741 0.7004,-1.90874 1.32708,-3.158505 0.62669,-1.249769 1.22222,-2.857112 1.32341,-3.571875 0.10119,-0.714762 0.39555,-2.252068 0.65415,-3.416235 0.25859,-1.164166 0.54856,-2.56315 0.64439,-3.108854 0.15511,-0.883349 0.25998,-0.992187 0.95598,-0.992187 0.63009,0 0.78176,0.113424 0.78176,0.584613 0,0.899246 -1.8762,7.497676 -2.84304,9.99872 -0.26458,0.684403 0.66999,-0.219575 1.55133,-1.500557 0.77464,-1.125897 1.1199,-2.470817 1.83928,-7.164547 0.28556,-1.863185 0.31561,-1.918229 1.0472,-1.918229 0.71749,0 0.74695,0.04707 0.62107,0.992187 -0.30206,2.267941 -0.98359,6.060419 -1.18867,6.614583 -0.12118,0.327422 -0.17861,0.595313 -0.12764,0.595313 0.23218,0 5.23646,-2.402184 5.87261,-2.819005 0.39246,-0.257154 0.96405,-0.505098 1.2702,-0.550985 0.30614,-0.04589 1.02638,-0.315018 1.60052,-0.598068 0.57414,-0.28305 1.1,-0.45853 1.16857,-0.389956 0.14891,0.148904 0.30687,0.01772 -1.85066,1.536937 -0.96518,0.679623 -2.57252,1.984648 -3.57188,2.900055 -0.99936,0.915408 -3.60295,3.053677 -5.78576,4.751705 -9.51703,7.4034 -13.04784,10.94519 -15.47431,15.52242 -2.05373,3.87412 -1.96122,4.13203 0.4982,1.389 1.19218,-1.32966 2.78733,-2.94309 3.54478,-3.5854 11.67874,-9.90359 13.52098,-11.63939 21.29886,-20.068258 0.90301,-0.978595 1.64184,-1.661401 1.64184,-1.517346 0,0.144054 -0.35681,0.894159 -0.79292,1.666898 -0.72899,1.291702 -1.55304,3.504113 -1.95452,5.247481 -0.12205,0.529985 0.009,0.911465 0.52205,1.521355 0.67983,0.80794 1.69623,1.10544 1.69623,0.4965 0,-0.22386 0.0828,-0.2347 0.28076,-0.0367 0.27514,0.27514 1.83234,-0.0832 2.27194,-0.52276 0.0997,-0.0997 0.40161,-0.18133 0.67085,-0.18133 0.45292,0 0.44045,0.094 -0.16669,1.25677 -0.36092,0.69122 -1.40472,2.03123 -2.31956,2.97779 -2.22667,2.30387 -7.11846,6.38413 -9.02075,7.52423 -1.91643,1.14859 -5.07131,3.78363 -7.32697,6.11969 -1.62036,1.67812 -1.6586,1.74539 -0.66146,1.16359 0.58209,-0.33963 2.88612,-1.86173 5.12007,-3.38244 2.63332,-1.79257 4.68037,-2.98094 5.82083,-3.37915 0.96751,-0.33782 1.97044,-0.87474 2.22874,-1.19317 0.87914,-1.08376 0.73848,-0.31868 -0.20454,1.11261 -1.03401,1.56937 -3.28175,3.7542 -5.21921,5.07313 -0.68747,0.468 -1.25302,0.9402 -1.25677,1.04934 -0.0168,0.48942 10.30922,0.28995 13.22234,-0.25542 2.23584,-0.41857 5.0657,-1.61398 6.35,-2.68242 l 0.66146,-0.55028 -0.71199,-0.009 c -0.39159,-0.005 -0.77568,0.0943 -0.85353,0.22021 -0.0778,0.12596 -0.71079,-0.0434 -1.40655,-0.3764 -1.28333,-0.61418 -5.01029,-1.68587 -6.00745,-1.72744 -0.40562,-0.0169 -0.3477,-0.0819 0.22592,-0.25342 0.42428,-0.12687 1.25772,-0.18212 1.85209,-0.12277 0.59437,0.0593 2.22982,0.19051 3.63432,0.29148 2.50845,0.18033 2.56582,0.17141 3.24115,-0.50391 0.85859,-0.8586 0.8996,-1.36272 0.0922,-1.13326 -0.32742,0.0931 -1.39926,0.36815 -2.38187,0.61133 l -1.78655,0.44215 -0.88131,-0.8542 c -1.7683,-1.71389 -4.6622,-1.67011 -6.73234,0.10185 -0.58751,0.50289 -1.13133,0.91433 -1.20851,0.91433 -0.0772,0 0.0395,-0.52766 0.25922,-1.17258 0.22452,-0.65893 1.07743,-1.94049 1.94705,-2.92558 0.85113,-0.96415 2.15797,-2.793 2.90408,-4.06412 1.43049,-2.43708 2.80147,-4.29626 2.46871,-3.34781 -0.18381,0.52389 -0.17866,0.52408 0.59561,0.0228 0.42956,-0.2781 1.07829,-0.6945 1.44162,-0.92532 l 0.66061,-0.41968 -0.52831,0.69586 c -4.79384,6.31417 -6.21686,8.29304 -6.21686,8.64524 0,0.48624 0.17225,0.34293 1.24301,-1.03413 0.40775,-0.5244 1.64198,-2.07221 2.74273,-3.43959 3.26251,-4.05275 4.79797,-6.093743 4.67607,-6.215641 -0.19513,-0.195133 -3.45279,0.912011 -4.4008,1.495651 -0.66088,0.40687 -0.9501,0.46939 -1.09405,0.23647 -0.2843,-0.46 0.54972,-1.309903 1.28542,-1.309903 0.34684,0 1.30264,-0.166162 2.12401,-0.36925 3.01791,-0.746193 2.9514,-0.740665 2.75973,-0.229334 -0.21743,0.580024 -2.41772,3.788957 -4.40079,6.418127 -1.89585,2.51355 -1.94939,3.20086 -0.40524,5.20237 1.24497,1.61371 1.63486,1.69751 4.73033,1.01663 2.33276,-0.51312 3.0372,-0.49208 1.93342,0.0577 -0.46458,0.23142 -0.99088,0.77366 -1.16954,1.20499 -0.17866,0.43133 -0.67876,0.99947 -1.11133,1.26253 l -0.78648,0.47829 0.89552,0.0857 c 1.28078,0.12261 1.24357,0.69942 -0.14305,2.2176 -0.65691,0.71924 -1.197,1.38851 -1.20021,1.48725 -0.003,0.0988 -0.2005,0.37421 -0.43842,0.61213 -0.33758,0.33758 -0.37114,0.55964 -0.15282,1.01108 0.15387,0.31818 0.52815,1.43379 0.83173,2.47913 0.30358,1.04534 0.83091,2.23597 1.17185,2.64583 0.88168,1.05995 1.29129,1.91754 1.12405,2.35339 -0.18688,0.48698 -1.81053,0.49146 -3.41222,0.009 -0.67028,-0.20173 -1.2722,-0.31326 -1.3376,-0.24786 -0.38317,0.38317 1.61617,6.3513 3.12556,9.32995 0.46749,0.922534 0.62165,1.492564 0.45007,1.664154 -0.4114,0.4114 -1.97056,-0.22739 -3.74705,-1.535174 l -1.58973,-1.17028 -0.022,1.78539 c -0.0121,0.981964 -0.0531,2.023514 -0.091,2.314554 -0.0379,0.29105 -0.15709,1.48438 -0.26475,2.65185 l -0.19576,2.12268 h 1.06563 c 1.97756,0 3.15056,1.84485 2.81604,4.42896 -0.52893,4.08596 -0.89662,5.16043 -2.58141,7.54351 -0.89549,1.26665 -2.19882,2.99753 -2.89629,3.84639 -0.93831,1.14199 -1.41015,2.03653 -1.81425,3.43958 -0.75905,2.63546 -1.08594,3.28822 -2.42135,4.83519 -0.8811,1.02068 -1.2516,1.73308 -1.51363,2.91042 -0.19082,0.85741 -0.42303,1.61845 -0.51601,1.69121 -0.093,0.0728 -0.48473,0.6197 -0.87056,1.21542 -0.76617,1.18295 -2.30405,2.07801 -3.25731,1.89578 -0.54694,-0.10456 -0.66589,0.0898 -1.31993,2.15726 -1.28182,4.05176 -1.5023,4.59519 -3.60563,8.88675 -2.52723,5.15648 -3.01821,6.82905 -2.99023,10.18646 0.0309,3.71044 0.67792,5.47932 3.22167,8.80807 0.93018,1.21723 5.81144,5.94586 7.30594,7.07749 1.75706,1.33045 3.19184,2.26165 4.04802,2.62725 0.31866,0.13607 1.3307,0.59537 2.24896,1.02066 0.91826,0.42529 3.01004,1.20297 4.64839,1.72818 3.43938,1.10255 4.85268,1.77208 5.99512,2.8401 0.54791,0.51221 0.98932,0.71446 1.3448,0.61616 0.39057,-0.108 0.43367,-0.0802 0.16454,0.10601 -0.44933,0.31095 -0.11921,0.93065 0.39139,0.73471 0.20356,-0.0781 0.37011,-0.0101 0.37011,0.15111 0,0.19432 -0.42366,0.24269 -1.25677,0.14349 -1.46265,-0.17416 -2.32021,-0.50393 -3.24115,-1.24638 -0.3638,-0.29329 -1.79255,-0.83353 -3.175,-1.20052 -6.93318,-1.84051 -10.72204,-3.98358 -15.79812,-8.93578 -2.86458,-2.79467 -5.03364,-5.56821 -6.00542,-7.67902 -1.53522,-3.33466 -0.10535,3.30139 2.34639,10.88965 1.06605,3.29947 2.02095,6.50504 2.12201,7.12351 0.16647,1.0188 0.13246,1.12447 -0.36189,1.12447 -0.65398,0 -0.85141,-0.37393 -2.54945,-4.82864 -0.70724,-1.85539 -1.42548,-3.37344 -1.59609,-3.37344 -0.41536,0 -1.56992,-4.1583 -2.22954,-8.02994 -0.8236,-4.83416 -0.6593,-10.90929 0.38748,-14.32735 0.15956,-0.52101 0.15677,-0.5212 -0.18134,-0.0123 -1.19014,1.79122 -12.416663,12.89247 -14.704803,14.54072 -1.49982,1.08039 -3.30237,1.74349 -4.73944,1.74349 -2.03682,0 -5.625616,-2.70041 -9.274714,-6.97879 -1.902786,-2.23092 -6.769621,-7.68525 -8.140795,-9.12351 l -0.595061,-0.62417 0.345786,1.33303 c 0.645401,2.4881 0.722781,5.28123 0.257863,9.30802 -0.721077,6.24545 -1.812038,10.94046 -3.2737,14.08854 -0.692682,1.49188 -1.59785,3.51617 -2.011481,4.49844 -0.439441,1.04355 -0.912305,1.78594 -1.137552,1.78594 -0.251402,0 -0.326509,-0.1537 -0.215927,-0.44188 0.09326,-0.24303 0.290629,-0.98717 0.4386,-1.65364 0.147963,-0.66648 0.789988,-2.93818 1.426713,-5.04823 1.153771,-3.8235 2.519648,-9.3509 2.519648,-10.19646 0,-0.24773 -0.510548,0.24241 -1.151395,1.10537 -1.605958,2.16257 -6.243315,6.57207 -8.77048,8.33954 -3.583199,2.50604 -7.310752,4.19123 -12.74478,5.76181 -1.299233,0.37551 -2.129402,0.79461 -2.63493,1.33022 -0.642514,0.68074 -0.91914,0.77982 -2.136744,0.76527 -0.772033,-0.009 -1.331794,-0.12492 -1.249392,-0.25825 z m 51.066025,-16.2649 c 0.87907,-0.4674 3.86935,-3.27196 9.379993,-8.79739 9.84466,-9.87111 10.23987,-10.45913 13.45361,-20.0175 2.42037,-7.19871 3.39603,-12.37969 3.11407,-16.53646 -0.15207,-2.24188 -0.90306,-5.79539 -1.38197,-6.53913 -0.20754,-0.3223 -0.37734,-0.76879 -0.37734,-0.99219 0,-0.46888 -0.84572,-0.53859 -1.60489,-0.13229 -0.63567,0.3402 -0.65923,0.71724 -0.0521,0.83416 0.34343,0.0661 0.22184,0.22883 -0.48089,0.64345 -0.76811,0.4532 -1.01091,0.81644 -1.32442,1.98141 l -0.38388,1.42646 0.79863,0.73688 c 0.73133,0.67479 0.92124,0.7237 2.25383,0.58049 1.33246,-0.1432 1.41299,-0.12247 0.95467,0.24577 -0.2753,0.22119 -0.63249,0.44968 -0.79375,0.50777 -0.16127,0.0581 -0.20999,0.19521 -0.10828,0.30471 0.10171,0.10951 0.53807,0.076 0.96969,-0.0745 0.43162,-0.15046 0.84416,-0.21417 0.91675,-0.14158 0.24144,0.24144 -1.78928,1.86058 -2.99741,2.3899 -0.65485,0.2869 -1.56378,0.94665 -2.01986,1.4661 -0.45607,0.51944 -1.06696,1.07168 -1.35753,1.22719 -1.00498,0.53785 -3.84333,1.34283 -5.35386,1.5184 -0.21828,0.0254 -0.51594,0.0606 -0.66146,0.0783 -0.60827,0.074 0.60399,0.54697 1.45521,0.56779 0.50932,0.0125 1.16373,0.11542 1.45425,0.22881 0.41563,0.16223 0.27466,0.24227 -0.66146,0.37552 -0.65432,0.0932 -1.61955,0.11199 -2.14497,0.0419 -0.93999,-0.12544 -1.01369,-0.0637 -4.59626,3.85112 -2.00251,2.18823 -3.689323,3.93023 -3.748453,3.8711 -0.0591,-0.0591 0.016,-0.43229 0.16691,-0.82925 0.340153,-0.89467 1.592483,-8.0961 1.592483,-9.15745 0,-0.54083 -0.13068,-0.77753 -0.42927,-0.77753 -0.35017,0 -0.36902,-0.0726 -0.10232,-0.39396 0.17983,-0.21668 0.41662,-0.33855 0.52621,-0.27082 0.10958,0.0677 0.42351,-0.12951 0.69762,-0.43829 0.4902,-0.55222 0.4897,-0.55706 -0.0308,-0.29495 -0.93906,0.4729 -2.05127,0.66197 -1.83493,0.31193 0.13726,-0.2221 -0.0106,-0.27448 -0.507003,-0.17959 -0.38543,0.0737 -0.70078,0.0752 -0.70078,0.003 0,-0.40335 1.208663,-1.98378 1.885973,-2.46606 0.99025,-0.70512 0.81667,-0.94941 -0.27388,-0.38546 -1.096583,0.56706 -1.048823,0.066 0.059,-0.61862 1.02913,-0.63604 1.91677,-1.55758 1.70463,-1.76972 -0.28749,-0.28749 -2.734203,1.71722 -4.677913,3.83284 -1.08004,1.17554 -2.00761,2.09345 -2.06127,2.03978 -0.0537,-0.0537 0.0951,-0.94471 0.33058,-1.98009 0.42049,-1.84872 0.91625,-2.72731 0.91625,-1.62376 0,0.87611 0.44875,0.37973 0.65514,-0.72468 0.10228,-0.54731 0.27491,-1.11418 0.38361,-1.2597 0.10871,-0.14552 0.47035,-0.95234 0.80364,-1.79293 0.59882,-1.51025 1.454063,-2.83728 1.828573,-2.83728 0.10613,0 0.10939,0.80368 0.007,1.78594 -0.10215,0.98227 -0.1361,1.86709 -0.0755,1.96627 0.0606,0.0992 -0.10737,0.33731 -0.37337,0.52917 -0.266003,0.19186 -0.580023,0.50954 -0.697813,0.70596 -0.1724,0.28746 -0.1076,0.30009 0.33218,0.0647 0.300503,-0.16082 0.613893,-0.40166 0.696423,-0.53521 0.0825,-0.13354 0.50444,-0.32064 0.93756,-0.41576 1.46183,-0.32108 2.17758,-1.78166 2.62575,-5.35816 0.25042,-1.99846 0.0685,-2.42623 -0.83099,-1.95403 -0.33217,0.17438 -0.39559,0.25757 -0.14093,0.18488 0.25466,-0.0727 0.46302,-0.0458 0.46302,0.0597 0,0.27137 -2.09631,0.89367 -2.39293,0.71035 -0.13502,-0.0834 -0.76363,0.15194 -1.396923,0.52307 -1.53615,0.90024 -1.72074,0.85084 -0.57609,-0.15418 0.51927,-0.45593 0.878623,-0.89448 0.79855,-0.97455 -0.0801,-0.0801 0.201353,-0.29145 0.625383,-0.46975 0.42402,-0.17829 1.37851,-1.12672 2.12107,-2.10762 0.74256,-0.9809 1.35011,-1.72071 1.35011,-1.64402 0,0.40369 -0.92954,2.29944 -1.49469,3.04834 -0.3569,0.47294 -0.52378,0.85989 -0.37086,0.85989 0.15293,0 0.27805,-0.0981 0.27805,-0.21792 0,-0.11985 0.43461,-0.32821 0.9658,-0.46302 0.93226,-0.23659 0.98734,-0.31859 1.58642,-2.36177 0.34135,-1.16416 0.81691,-3.6361 1.0568,-5.49319 0.40827,-3.16064 0.40761,-3.40807 -0.0103,-3.86991 -0.39562,-0.43715 -0.39997,-0.51125 -0.0382,-0.65007 0.27392,-0.10511 0.40829,-0.50527 0.40829,-1.215924 v -1.05925 l -1.52135,-0.42498 c -0.83675,-0.23373 -1.72293,-0.48105 -1.96929,-0.5496 -0.3586,-0.0998 -0.56251,0.26054 -1.02248,1.80665 -0.72611,2.440774 -1.85943,4.696714 -3.302323,6.573504 -1.69472,2.20434 -2.24033,2.51645 -1.2245,0.70044 0.74744,-1.3362 3.282323,-8.384214 3.091123,-8.594564 -0.0941,-0.10357 -2.004883,0.99545 -2.583993,1.48627 -0.25466,0.215844 -0.46302,0.319084 -0.46302,0.229444 0,-0.328974 1.19127,-1.259094 2.30007,-1.795854 1.192643,-0.57735 1.581433,-1.20785 0.544203,-0.88254 -0.327423,0.10269 -1.279923,0.51721 -2.116673,0.92116 -0.83674,0.40395 -1.52135,0.68095 -1.52135,0.61556 0,-0.42449 0.98905,-1.4699 1.9881,-2.10139 1.953843,-1.23502 1.17841,-0.99488 -1.87752,0.58143 -1.76573,0.9108 -3.20805,1.85674 -3.71018,2.4333 l -0.82148,0.943254 -0.7264,-1.097674 c -0.39952,-0.60372 -1.0058,-1.28074 -1.3473,-1.5045 -0.663153,-0.43452 -2.215088,-3.46226 -3.873383,-7.55677 -0.923962,-2.28137 -2.378408,-7.21965 -3.662537,-12.43542 -0.268705,-1.09141 -0.798171,-2.75828 -1.176588,-3.70417 l -0.688033,-1.71979 0.153037,2.23551 c 0.203539,2.97322 1.951318,10.61799 3.179935,13.90901 1.166823,3.1255 1.968616,4.76732 3.292482,6.74194 1.457563,2.17404 1.458997,2.18423 0.186812,1.32564 -1.394809,-0.94135 -1.620591,-0.98649 -1.223568,-0.24464 0.333039,0.62228 0.186042,0.92479 -0.302628,0.62277 -0.179139,-0.11071 -0.674132,-0.2287 -1.099984,-0.2622 -0.425849,-0.0335 -0.90633,-0.19297 -1.067729,-0.35437 -0.540138,-0.54013 -0.7826,-0.30101 -0.355584,0.3507 0.232135,0.35428 0.836253,2.11046 1.342486,3.902614 1.177366,4.16809 1.761508,5.84717 2.631429,7.56387 0.385485,0.76072 0.642175,1.38312 0.570426,1.38312 -0.07175,0 -0.762794,-0.8632 -1.535653,-1.91823 -1.283112,-1.75157 -2.113634,-3.35077 -4.397044,-8.466674 -0.438419,-0.98226 -0.935077,-1.78593 -1.10368,-1.78593 -0.168603,0 -0.540686,-0.29766 -0.826854,-0.66146 -0.669841,-0.85157 -1.215166,-0.83317 -3.070887,0.1036 -3.725002,1.88037 -6.479405,4.654984 -7.317194,7.370884 -0.175237,0.56806 -0.116221,0.59531 1.289396,0.59531 h 1.473039 v 0.87704 c 0,0.74433 0.142256,0.94487 0.940146,1.32536 0.553053,0.26373 0.865913,0.56844 0.759852,0.74004 -0.09916,0.16045 -0.01622,0.40109 0.184332,0.53476 0.243383,0.16223 0.126619,0.18783 -0.351141,0.077 -1.455772,-0.3377 -4.24829,-0.0644 -5.171369,0.50606 -0.28408,0.17557 -1.017516,2.17572 -1.176372,3.20807 -0.06966,0.45268 0.08447,0.52606 1.168652,0.55638 0.68689,0.0192 1.40698,0.16612 1.600202,0.32648 0.19322,0.16036 2.787153,1.52143 5.764292,3.02461 4.951812,2.5002 6.337122,3.31092 8.557717,5.00819 l 0.766935,0.5862 -0.406231,-0.64603 c -0.440814,-0.70104 -1.121823,-2.77792 -1.361361,-4.15176 -0.221141,-1.26835 0.286444,-1.05301 0.93548,0.39687 1.764053,3.94073 3.7706,7.59398 2.870115,5.22552 -0.491985,-1.29401 -0.0343,-1.04932 0.548553,0.29328 0.724672,1.66928 1.298614,3.53308 1.294783,4.20464 -0.0028,0.49191 -0.0373,0.48458 -0.489998,-0.1042 -0.267837,-0.34835 -0.615992,-0.55363 -0.773676,-0.45618 -0.29677,0.18342 -1.637995,-1.56171 -1.637995,-2.13126 0,-0.17591 -0.139296,-0.40593 -0.309547,-0.51115 -0.206311,-0.12751 -0.25481,-0.0487 -0.145418,0.2364 0.128466,0.33477 -0.08841,0.28672 -0.998143,-0.22118 -1.781188,-0.99443 -1.939639,-0.77847 -0.465698,0.63473 0.736335,0.70599 1.597482,1.7907 1.91366,2.41046 l 0.574865,1.12683 -0.608314,-0.42608 c -0.334574,-0.23434 -0.804672,-0.42608 -1.044662,-0.42608 -0.239991,0 -1.348275,-0.59531 -2.462853,-1.32292 -2.065618,-1.34845 -2.80389,-1.60276 -2.80389,-0.96585 0,0.19638 -0.355021,0.88099 -0.788935,1.52135 -0.433914,0.64036 -0.791101,1.26375 -0.79375,1.38531 -0.0026,0.12155 0.886228,0.13751 1.975276,0.0355 2.036689,-0.19086 4.369909,0.0125 4.369909,0.38077 0,0.11437 -1.279922,0.28132 -2.844271,0.371 -1.564349,0.0897 -3.247001,0.30362 -3.739226,0.47541 -0.685221,0.23915 -1.481831,0.24022 -3.399229,0.005 -2.450378,-0.30114 -2.543564,-0.3385 -4.329774,-1.73611 -1.012169,-0.79197 -1.678498,-1.48155 -1.495563,-1.54774 0.181468,-0.0657 -0.02725,-0.27598 -0.463811,-0.46736 -0.436563,-0.19139 -1.299766,-0.8271 -1.91823,-1.4127 l -1.124479,-1.06472 0.0024,4.48686 c 0.0021,3.78021 0.102714,4.92907 0.639371,7.2947 0.94021,4.14454 4.77471,13.33594 6.787234,16.26918 0.835371,1.21756 4.25356,5.04192 11.063506,12.37815 6.20041,6.6796 7.66721,7.47348 10.76497,5.82639 z m -1.45533,-8.54049 c -0.0166,-0.28861 -0.51541,-0.33945 -2.43163,-0.24783 -1.673545,0.08 -2.219679,0.0389 -1.78594,-0.13446 0.790276,-0.31586 6.91863,-0.49311 6.18105,-0.17878 -0.29104,0.12403 -0.78713,0.23388 -1.10243,0.24411 -0.31529,0.0102 -0.63332,0.16742 -0.70671,0.34933 -0.0986,0.24424 -0.13892,0.23577 -0.15434,-0.0324 z m -3.0277,-4.66562 c -0.416815,-0.21738 -1.094398,-0.39524 -1.505737,-0.39524 -0.41134,0 -0.821476,-0.11907 -0.911413,-0.26459 -0.106849,-0.17288 1.599451,-0.26458 4.92327,-0.26458 6.30908,0 6.4832,0.30789 0.3684,0.65141 -0.87313,0.0491 -1.74336,0.10115 -1.93385,0.11577 -0.19049,0.0146 -0.27276,0.14563 -0.18282,0.29115 0.2149,0.34772 0.14041,0.33456 -0.75785,-0.13392 z m -6.158594,-2.2095 c -1.632683,-1.02968 -1.538975,-1.67294 0.111969,-0.76862 l 1.08612,0.59492 1.668553,-0.50602 c 1.069638,-0.32439 2.333341,-0.48946 3.520632,-0.45987 1.01865,0.0254 2.52035,-0.0863 3.33712,-0.24824 1.32919,-0.26349 1.62065,-0.2344 2.7773,0.27724 1.84501,0.81613 3.305993,0.96511 4.351193,0.44369 1.01303,-0.50536 1.04377,-0.5101 1.04377,-0.16079 0,0.14766 -0.38696,0.51237 -0.8599,0.81047 -1.08741,0.6854 -3.215903,0.56947 -5.007633,-0.27274 -1.1893,-0.55904 -1.27266,-0.56376 -2.50996,-0.14229 -1.08414,0.3693 -1.50624,0.3881 -2.7609,0.12299 -1.27995,-0.27045 -1.598415,-0.25229 -2.344879,0.13372 -1.387504,0.71751 -3.425489,0.79857 -4.413385,0.17554 z m 9.033114,-5.85866 c -0.41575,-0.17865 -0.30234,-0.23051 0.52916,-0.24193 0.77632,-0.0107 0.95258,0.0538 0.66146,0.24193 -0.46292,0.29916 -0.49444,0.29916 -1.19062,0 z m -7.556204,-1.91823 c -0.322824,-0.28001 -0.16173,-0.55046 1.050411,-1.76353 1.482294,-1.48343 1.546037,-1.39189 0.20533,0.29487 -0.454668,0.57202 -0.712507,1.14925 -0.620482,1.38906 0.189881,0.49482 -0.112824,0.53275 -0.635259,0.0796 z m 11.955364,-1.24971 c -1.70541,-1.60112 -1.76902,-1.98566 -0.0997,-0.60257 0.69122,0.5727 1.47816,1.16136 1.74875,1.30814 0.40494,0.21965 0.42257,0.2935 0.0997,0.4174 -0.24071,0.0924 -0.91642,-0.34154 -1.74875,-1.12297 z M 72.953188,130.87095 c -0.335809,-0.1443 0.534299,-0.22306 2.38125,-0.21556 2.234636,0.009 2.664679,0.0627 1.852083,0.23074 -1.367885,0.28294 -3.557852,0.27509 -4.233333,-0.0152 z m 6.432682,-0.44532 c 0.190994,-0.0764 0.419198,-0.067 0.507119,0.0209 0.08792,0.0879 -0.06835,0.15045 -0.347266,0.13896 -0.308226,-0.0127 -0.370919,-0.0754 -0.159853,-0.15985 z m 5.73815,-15.85181 c -1.164166,-0.79675 -3.939291,-2.35032 -6.166945,-3.45238 -2.227654,-1.10206 -3.998505,-2.05552 -3.935224,-2.1188 0.218313,-0.21831 4.553685,1.43677 7.300589,2.78709 1.515068,0.74478 2.909909,1.35414 3.099647,1.35414 0.189738,0 0.778758,0.38087 1.308933,0.84637 0.8455,0.74236 0.904039,0.86738 0.476374,1.0174 -0.424606,0.14894 -0.385598,0.22621 0.302022,0.59825 0.624473,0.33787 0.678937,0.4261 0.260438,0.42189 -0.291042,-0.003 -1.481667,-0.65721 -2.645834,-1.45396 z m -9.789582,-13.07161 c 0.08994,-0.14552 0.216027,-0.26459 0.280199,-0.26459 0.06417,0 0.116676,0.11907 0.116676,0.26459 0,0.14552 -0.12609,0.26458 -0.280199,0.26458 -0.15411,0 -0.206614,-0.11906 -0.116676,-0.26458 z m 10.054166,-3.175004 c -0.26339,-0.29104 -0.359828,-0.52917 -0.214307,-0.52917 0.14552,0 0.480083,0.23813 0.743473,0.52917 0.26339,0.29104 0.359828,0.52916 0.214308,0.52916 -0.145521,0 -0.480084,-0.23812 -0.743474,-0.52916 z M 65.007452,136.36106 c -0.475428,-2.2392 -4.96606,-13.07219 -5.852105,-14.11734 l -0.64894,-0.76547 0.160911,2.11666 c 0.221284,2.91079 0.742527,4.59239 1.773116,5.7203 0.573736,0.62792 1.216014,1.90772 1.881547,3.74917 0.952024,2.63414 1.893271,4.15657 2.569805,4.15657 0.197536,0 0.236591,-0.29034 0.115666,-0.85989 z M 59.59173,125.57929 c -0.178319,-0.74331 -0.264684,-1.41101 -0.191923,-1.48377 0.07276,-0.0728 0.278188,0.47587 0.456506,1.21919 0.178319,0.74331 0.264684,1.41101 0.191924,1.48377 -0.07276,0.0728 -0.278188,-0.47588 -0.456507,-1.21919 z m 63.4782,10.39383 c 0.44577,-0.54079 1.06615,-1.76118 1.37864,-2.71198 0.79742,-2.42633 1.48717,-3.70559 2.12522,-3.94162 0.30968,-0.11456 0.70718,-0.65502 0.91477,-1.2438 0.37836,-1.07313 0.9677,-5.68676 0.75374,-5.90072 -0.45315,-0.45315 -2.72246,3.33287 -3.56456,5.94695 -0.18235,0.56607 -0.92244,2.27937 -1.64464,3.80734 -1.54817,3.27551 -2.07591,4.65643 -1.86147,4.87087 0.40048,0.40048 1.1588,0.0701 1.8983,-0.82704 z m -19.46127,-3.06929 c 0.82027,-1.35577 1.4914,-2.58681 1.4914,-2.73565 0,-0.29142 -1.13125,-0.88472 -1.68689,-0.88472 -0.21686,0 -0.54616,0.9869 -0.91359,2.73802 -0.57238,2.72783 -0.66092,3.34739 -0.47842,3.34739 0.0528,0 0.76723,-1.10927 1.5875,-2.46504 z m 6.94924,-4.61369 c 1.25693,-0.83604 3.65151,-3.40448 3.3463,-3.58926 -0.11285,-0.0683 -0.83582,-0.31058 -1.60661,-0.53835 -1.30399,-0.38535 -1.41224,-0.38269 -1.55702,0.0383 -0.49756,1.44684 -1.14784,2.67979 -1.76405,3.34469 -0.73223,0.79009 -0.8186,1.00344 -0.52507,1.29697 0.34416,0.34416 1.02831,0.16477 2.10645,-0.55234 z m -5.45784,0.0711 c 0,-0.37876 -0.46583,-2.49366 -0.7293,-3.31109 -0.15898,-0.49323 -1.10578,1.45843 -1.11584,2.3001 -0.007,0.5824 0.87503,1.40406 1.50714,1.40406 0.1859,0 0.338,-0.17688 0.338,-0.39307 z m -30.285891,-1.65642 c -0.368697,-0.73406 -0.670356,-1.60059 -0.670356,-1.92563 0,-0.55637 -0.07765,-0.58067 -1.32614,-0.41505 -0.729376,0.0968 -1.503283,0.24389 -1.719791,0.32698 -0.524679,0.20133 -0.503071,0.62361 0.03191,0.62361 0.234059,0 0.918668,0.53094 1.521354,1.17988 1.117124,1.20286 2.622839,2.16726 2.758334,1.7667 0.04127,-0.12201 -0.226618,-0.82243 -0.595311,-1.55649 z m -10.788173,-6.74791 c -0.05928,-7.14112 -0.0021,-8.61087 0.419285,-10.78177 0.705413,-3.63391 1.104984,-4.88163 2.177404,-6.7993 1.02856,-1.83924 1.325872,-2.03786 0.885399,-0.59151 -0.35124,1.15335 -1.020551,5.10822 -0.887598,5.2447 0.0551,0.0566 0.226013,-0.2411 0.379797,-0.66146 1.343927,-3.67357 3.779199,-8.184714 4.91754,-9.109344 0.536906,-0.4361 0.503137,-0.36891 -0.83852,1.66829 -1.134616,1.722824 -1.152253,2.214974 -0.03441,0.96011 0.944776,-1.06059 3.296711,-2.99022 5.609277,-4.60211 0.83511,-0.58208 1.951368,-1.4014 2.480575,-1.8207 l 0.962191,-0.76237 -1.653645,0.1802 c -0.909506,0.0991 -1.652728,0.085 -1.651609,-0.0314 0.0011,-0.11637 0.507138,-0.50044 1.124479,-0.85349 l 1.122442,-0.64192 -0.766178,-0.20542 c -0.913153,-0.24482 -2.03922,0.17136 -3.268718,1.20809 -1.349401,1.13783 -1.010226,0.58057 0.727605,-1.19545 0.873124,-0.89231 1.587499,-1.67623 1.587499,-1.74205 0,-0.0658 -0.726215,0.2674 -1.61381,0.74049 -3.389791,1.80674 -8.780467,7.31524 -12.153444,12.419074 -2.769669,4.19094 -3.974028,7.57925 -3.94123,11.08815 0.01207,1.29082 0.09389,1.80383 0.232949,1.46053 0.177165,-0.43735 0.244912,-0.34554 0.390472,0.52917 0.09687,0.58208 0.318884,1.83224 0.493374,2.77812 l 0.317254,1.71979 0.185179,-3.96875 c 0.101846,-2.18281 0.285695,-4.62359 0.408551,-5.42395 l 0.223372,-1.45521 0.453303,3.30729 c 0.249317,1.81901 0.453975,4.43838 0.454797,5.82083 0.0021,3.62945 0.767744,9.78959 1.21666,9.78959 0.05962,0 0.07751,-3.72071 0.03976,-8.26823 z m -1.788433,-12.33696 c 0,-0.32379 0.775888,-2.14897 0.913532,-2.14897 0.06198,0 -0.06988,0.53578 -0.293005,1.19062 -0.381232,1.11886 -0.620527,1.48843 -0.620527,0.95835 z m 15.920688,19.15528 c 0.45685,-0.18427 0.8593,-0.90829 0.631499,-1.13609 -0.07096,-0.071 -0.612857,-0.006 -1.204216,0.14389 -1.092367,0.27728 -1.634885,0.0574 -1.912358,-0.77501 -0.19194,-0.57582 -0.764072,0.0627 -0.591093,0.6597 0.373314,1.28836 1.564511,1.71723 3.076168,1.10751 z m 30.557269,-0.3874 c 0.43656,-0.87942 0.19309,-1.1537 -0.57649,-0.64945 -0.53347,0.34954 -0.79446,0.36601 -1.59806,0.10079 -1.10838,-0.36579 -1.48488,-0.12191 -1.15205,0.74627 0.20887,0.54481 0.38019,0.60078 1.61958,0.52917 1.16455,-0.0673 1.43729,-0.18341 1.70702,-0.72678 z m 15.17834,-5.86663 c 0.19013,-1.94747 0.35533,-5.86257 0.3671,-8.70022 0.0229,-5.51668 -0.0681,-6.00582 -1.5128,-8.13413 -0.82604,-1.21692 -1.02455,-1.06647 -0.52126,0.39506 0.36853,1.07024 0.43747,2.74908 0.46443,11.31094 0.0174,5.52979 0.0657,10.29229 0.1074,10.58333 0.1504,1.05086 0.75299,-1.95073 1.09513,-5.45498 z m -38.556443,2.64723 c -0.26289,-0.45285 -0.95423,-1.238 -1.536313,-1.74477 -1.121648,-0.97651 -7.57129,-4.32179 -11.773958,-6.10687 -2.345222,-0.99613 -4.497916,-1.61817 -4.497916,-1.29971 0,0.0761 3.60164,1.93436 8.003645,4.1295 4.402005,2.19514 8.479895,4.40386 9.061979,4.90826 0.582083,0.50441 1.09483,0.92157 1.139438,0.92703 0.04461,0.005 -0.133987,-0.36058 -0.396875,-0.81344 z m 46.002723,-2.08704 c 2.38083,-3.32812 2.59951,-3.77032 2.59951,-5.25675 0,-0.74681 -0.097,-1.35783 -0.21558,-1.35783 -0.11857,0 -0.42813,0.44571 -0.6879,0.99047 -0.25978,0.54476 -0.98775,1.76515 -1.61773,2.71198 -0.79943,1.20154 -1.23098,2.1957 -1.42876,3.29146 -0.31637,1.75278 -0.32863,1.87211 -0.17623,1.71529 0.0589,-0.0606 0.74594,-1.00321 1.52669,-2.09462 z m -63.414035,1.3229 c -0.08994,-0.14552 -0.33509,-0.26458 -0.544783,-0.26458 -0.209693,0 -0.381259,-0.23813 -0.381259,-0.52917 0,-0.69997 -0.446257,-0.67804 -0.671941,0.033 -0.111951,0.35272 -0.04466,0.64696 0.180607,0.7897 0.500531,0.31715 1.617186,0.29432 1.417376,-0.029 z m 13.361457,0.13007 c 0,-0.074 -1.568598,-0.90778 -3.485771,-1.85288 -1.917174,-0.9451 -3.673345,-1.87915 -3.902604,-2.07566 -0.229259,-0.19652 -1.190739,-0.76928 -2.136624,-1.27281 -0.945886,-0.50354 -2.341118,-1.28959 -3.10052,-1.7468 -0.759399,-0.4572 -1.430525,-0.74728 -1.491387,-0.64462 -0.06086,0.10266 -0.198446,1.19576 -0.305737,2.4291 -0.172103,1.97841 -0.148267,2.2036 0.202435,1.91255 0.466755,-0.38738 1.925503,0.0335 1.651691,0.47653 -0.09072,0.14678 0.10083,0.64013 0.425667,1.09632 l 0.590611,0.82944 3.618634,-0.14326 c 3.716078,-0.1471 5.594959,0.0448 6.831166,0.69779 0.779452,0.41171 1.102439,0.49793 1.102439,0.2943 z m -13.581943,-4.01063 c -0.346871,-0.34687 -0.167314,-0.56544 0.352777,-0.42944 0.291042,0.0761 0.529167,0.24356 0.529167,0.37211 0,0.27337 -0.625263,0.31402 -0.881944,0.0573 z m 1.146527,-0.61736 c -0.319291,-0.20634 -0.277447,-0.25727 0.214053,-0.26053 0.34067,-0.002 0.538589,0.11299 0.447406,0.26053 -0.196636,0.31816 -0.169138,0.31816 -0.661459,0 z m 36.364664,3.67902 c -0.0985,-0.15936 0.0731,-0.63079 0.38126,-1.04762 0.71584,-0.96823 0.71905,-1.26955 0.007,-0.62484 -0.86693,0.78456 -1.15247,1.45976 -0.73041,1.72721 0.479,0.30353 0.55629,0.29118 0.3425,-0.0547 z m -48.535497,-0.60131 c 0,-0.34455 -0.646837,-1.59843 -1.437417,-2.78639 -0.79058,-1.18796 -1.578869,-2.6027 -1.751753,-3.14385 -0.383969,-1.20188 -0.776476,-1.68562 -0.787625,-0.9707 -0.01498,0.96055 -0.440619,-0.16775 -0.889018,-2.35663 -0.492526,-2.40429 -0.503949,-2.55139 -0.198133,-2.55139 0.125246,0 0.616113,0.72871 1.090818,1.61934 0.946258,1.77536 5.770697,8.35373 6.268021,8.54677 0.385056,0.14945 -0.0773,-1.00423 -1.339363,-3.34204 -0.494271,-0.91558 -1.044914,-2.14094 -1.223648,-2.72302 -0.342,-1.11379 -0.790215,-1.81028 -0.790215,-1.22793 0,0.18321 -0.126817,0.25473 -0.281818,0.15894 -0.184481,-0.11401 -0.124624,-0.34787 0.173297,-0.67707 0.423822,-0.46832 0.425008,-0.53617 0.01725,-0.98676 -0.240851,-0.26612 -0.437896,-0.61483 -0.437896,-0.77491 0,-0.16008 -0.401011,-0.71625 -0.891138,-1.23594 -1.038437,-1.10106 -1.999808,-1.22893 -2.849714,-0.37903 -0.522981,0.52299 -0.554492,0.75625 -0.41592,3.07892 0.136833,2.29352 0.228643,2.63123 1.050996,3.86591 0.495587,0.74408 1.116223,1.71005 1.379192,2.14661 0.627412,1.04159 3.069138,4.36563 3.206837,4.36563 0.05899,0 0.107246,-0.28191 0.107247,-0.62646 z m 54.260077,0.31327 c 0.7366,0.46001 1.77638,0.38156 2.06393,-0.15573 0.32282,-0.6032 0.80483,-3.23654 0.59144,-3.23114 -0.0893,0.002 -0.99576,0.47646 -2.0144,1.0538 -1.01865,0.57734 -2.3581,1.31359 -2.97657,1.63612 -0.61846,0.32253 -1.12448,0.66148 -1.12448,0.75322 0,0.0917 0.66569,0.0462 1.47929,-0.10133 1.08809,-0.19722 1.61192,-0.1853 1.98079,0.0451 z m -43.436394,-0.82903 c -0.350475,-0.33718 -0.745849,-0.55634 -0.878612,-0.48701 -0.271206,0.14162 0.807987,1.10006 1.238652,1.10006 0.15245,0 -0.0096,-0.27587 -0.36004,-0.61305 z m 0.636956,-0.47932 c -0.3624,-0.3624 -0.609582,-0.44968 -0.72852,-0.25723 -0.09944,0.16089 -0.008,0.29127 0.204166,0.29127 0.211301,0 0.459256,0.19564 0.55101,0.43474 0.09176,0.23911 0.246706,0.35487 0.344337,0.25724 0.09763,-0.0976 -0.06932,-0.42434 -0.370993,-0.72602 z m 62.322558,-4.01485 c 1.43855,-1.92045 2.99775,-4.11681 3.4649,-4.8808 0.80568,-1.3176 1.59344,-1.9195 1.21199,-0.92604 -0.75865,1.97585 -1.00305,3.54951 -0.75805,4.88092 0.25358,1.37798 0.26363,1.38988 0.56468,0.66866 0.36819,-0.88205 0.81709,-3.56997 0.88176,-5.27987 0.055,-1.45491 -0.34688,-2.05565 -1.3753,-2.05565 -0.79927,0 -3.11387,1.71597 -3.14381,2.33072 -0.009,0.19049 -0.15138,0.26322 -0.31577,0.16161 -0.18213,-0.11256 -0.2492,-0.0411 -0.17168,0.18282 0.07,0.20216 -0.1527,0.70412 -0.49484,1.11547 -0.34214,0.41134 -0.62261,1.00665 -0.62327,1.32291 -5.3e-4,0.31626 -0.5359,1.70611 -1.18943,3.08856 -2.04538,4.3267 -1.65779,4.20552 1.94882,-0.60931 z m -23.24854,-0.26346 c 0.73842,-2.32937 1.28372,-5.07215 2.35141,-11.82723 l 0.27183,-1.71979 -0.10794,2.24895 c -0.0594,1.23693 -0.35177,3.42293 -0.64978,4.85777 -0.29802,1.43485 -0.53707,3.10173 -0.53125,3.70417 0.0105,1.08373 0.0145,1.08819 0.37775,0.42038 0.61499,-1.13059 2.48912,-6.78366 2.87296,-8.66594 0.42701,-2.09393 0.2558,-2.9113 -0.91499,-4.36819 -0.46034,-0.572834 -1.16906,-1.931664 -1.57493,-3.019614 -0.40587,-1.08795 -0.90596,-2.17437 -1.1113,-2.41427 -0.20534,-0.2399 -0.47145,-0.61477 -0.59136,-0.83306 -0.17591,-0.32021 -0.1198,-0.31394 0.29049,0.0325 0.27967,0.23615 1.58006,1.15403 2.88975,2.03974 2.85197,1.92871 4.10978,3.0232 4.56261,3.970194 0.33053,0.69123 0.33468,0.68608 0.22105,-0.274204 -0.18506,-1.56403 -0.89535,-2.75278 -2.57262,-4.30564 -1.88493,-1.74512 -3.34254,-2.62896 -5.71854,-3.46754 -2.79384,-0.98605 -5.60896,-0.7791 -7.12352,0.52367 l -0.710023,0.61073 2.230933,0.0521 c 2.48583,0.058 4.73796,0.60225 5.34173,1.29081 0.54884,0.62593 0.74356,2.61853 0.75536,7.729764 0.0106,4.59359 -0.20048,6.06007 -1.755,12.1926 -0.37997,1.49898 -0.785,3.22935 -0.90007,3.84526 l -0.20921,1.11983 0.7302,-0.53985 c 0.56031,-0.41426 0.92662,-1.15948 1.57446,-3.2031 z m 19.0345,0.20676 c 0.25357,-1.82203 -0.0222,-5.30057 -0.45424,-5.73 -0.10503,-0.10439 -0.21347,1.91709 -0.24098,4.49217 -0.0511,4.78708 0.15115,5.14726 0.69522,1.23783 z m -15.23659,2.00468 c 2.17659,-0.81314 3.08202,-1.4225 3.08202,-2.07421 0,-0.66019 -1.4046,-0.18405 -3.42989,1.16268 -1.02398,0.68089 -1.86178,1.33959 -1.86178,1.46376 0,0.29397 -0.16743,0.33582 2.20965,-0.55223 z m 5.66197,-4.05065 c -0.14338,-1.12779 -0.37855,-2.05052 -0.52259,-2.05052 -0.14404,0 -0.19497,0.1744 -0.11317,0.38756 0.0818,0.21316 0.23122,1.29796 0.33205,2.41068 0.10083,1.11271 0.26907,1.86104 0.37386,1.66295 0.1048,-0.19808 0.0732,-1.28289 -0.0702,-2.41067 z m -3.86297,0.75871 c 1.09364,-0.71916 1.25576,-0.94353 1.26509,-1.7509 0.0196,-1.6967 -0.21533,-2.11667 -1.1841,-2.11667 -0.79757,0 -0.93853,0.12839 -1.5796,1.43868 -0.38713,0.79127 -0.77057,1.93594 -0.85209,2.54371 -0.14276,1.06434 -0.1253,1.09776 0.47405,0.90754 0.34224,-0.10863 1.18674,-0.56869 1.87665,-1.02236 z m 5.53374,0.62104 c 0.78025,-0.41757 0.62441,-0.96529 -0.28197,-0.99106 -0.67065,-0.0191 -0.79375,0.0773 -0.79375,0.62119 0,0.69894 0.28059,0.79542 1.07572,0.36987 z m 0.34972,-2.12056 c 0.13599,-0.12643 0.10114,-0.69854 -0.0828,-1.35932 -0.44875,-1.61212 -0.72057,-9.08356 -0.3215,-8.83692 0.16598,0.10258 0.30177,0.4351 0.30177,0.73892 0,0.30384 0.40746,1.93392 0.90546,3.62241 0.498,1.68849 1.05616,3.78436 1.24035,4.65749 l 0.33491,1.5875 0.2145,-1.45521 c 0.11798,-0.80036 0.24443,-3.24115 0.281,-5.42396 l 0.0665,-3.96875 -1.03425,-1.69136 c -1.12954,-1.847184 -3.97218,-5.026014 -4.24966,-4.752254 -0.0953,0.094 -0.0431,0.88903 0.11606,1.76668 0.2969,1.63728 0.0168,4.598624 -0.53189,5.623904 -0.31185,0.5827 -0.33556,3.2195 -0.032,3.56418 0.65058,0.73882 1.35034,3.10427 1.39464,4.7144 0.0457,1.66212 0.0813,1.75601 0.60537,1.59823 0.30623,-0.0922 0.66245,-0.26587 0.7916,-0.38594 z m 8.75378,-2.42065 c -0.10405,-0.75654 -0.35291,-1.79834 -0.55302,-2.31511 l -0.36384,-0.93958 0.15514,1.19063 c 0.19604,1.50459 0.66027,3.43958 0.82519,3.43958 0.0691,0 0.0406,-0.61898 -0.0635,-1.37552 z m -13.90199,-1.60104 c -0.0199,-0.63789 -0.4609,-1.85332 -0.49197,-1.35599 -0.0102,0.16371 -0.093,0.66972 -0.18396,1.12448 -0.13094,0.65467 -0.0759,0.82682 0.26458,0.82682 0.27499,0 0.42325,-0.21455 0.41135,-0.59531 z m -55.292734,-3.69072 c 0.524772,-2.44692 0.617384,-3.38689 0.333701,-3.38689 -0.445969,0 -1.908172,4.28636 -1.895404,5.55625 l 0.0066,0.66146 0.642631,-0.78641 c 0.353446,-0.43253 0.764037,-1.35251 0.912421,-2.04441 z m 11.723343,2.25942 c -0.238974,-0.0965 -0.254479,-0.27127 -0.05684,-0.64057 0.226591,-0.42338 0.182247,-0.50782 -0.266698,-0.50782 -0.296161,0 -0.538474,0.10933 -0.538474,0.24294 0,0.13362 -0.07227,0.43128 -0.1606,0.66146 -0.124267,0.32384 0.0104,0.41379 0.595313,0.39763 0.415753,-0.0115 0.608036,-0.0806 0.427296,-0.15364 z m 60.297171,-3.165 c -0.28447,-0.8554 -0.65998,-2.26964 -0.83448,-3.14276 -0.6115,-3.059664 -2.72967,-6.328904 -5.19992,-8.025694 -1.45599,-1.0001 -1.46551,-0.63032 -0.0377,1.46482 1.22791,1.80184 2.28999,3.66055 4.80722,8.412954 0.38539,0.7276 0.90615,2.03729 1.15724,2.91042 0.40337,1.40268 0.46632,1.49133 0.5407,0.76151 0.0463,-0.4543 -0.14857,-1.52586 -0.43303,-2.38125 z m -2.30031,0.89331 c -1.02203,-3.14973 -2.22846,-4.97379 -5.27106,-7.969574 -3.77768,-3.71955 -8.66895,-7.66223 -10.5229,-8.48213 -1.91684,-0.84772 -4.45285,-1.29168 -6.13074,-1.07326 -1.79236,0.23332 -4.65704,0.94335 -4.64696,1.15178 0.004,0.0914 1.4034,0.61696 3.10885,1.16779 3.9312,1.26971 6.58985,2.80838 8.75603,5.06746 0.92756,0.96733 1.72302,1.72223 1.76769,1.67756 0.0447,-0.0447 -0.16148,-0.8307 -0.45814,-1.74672 -0.29665,-0.91602 -0.4778,-1.72706 -0.40255,-1.80231 0.19818,-0.19817 3.32873,1.65021 5.6912,3.36027 3.15557,2.28414 7.06849,6.999834 8.04192,9.691804 0.51416,1.42191 0.57214,0.51513 0.0667,-1.04267 z m -75.637612,-2.46594 c 1.393597,-0.6644 3.506501,-1.77914 4.69534,-2.4772 1.188839,-0.698064 4.066527,-2.309834 6.39486,-3.581704 2.328333,-1.27187 4.769114,-2.69159 5.423958,-3.15493 0.654844,-0.46334 1.784459,-1.18707 2.510253,-1.6083 l 1.319628,-0.76586 -0.755047,-0.20193 c -2.369531,-0.63371 -9.440626,2.33559 -13.525875,5.6798 -0.727604,0.59562 -2.012524,1.71029 -2.855375,2.47706 -0.842854,0.766764 -2.540918,2.010364 -3.773477,2.763554 -3.892481,2.37863 -3.586414,2.84904 0.565735,0.86951 z m 8.900255,-0.5118 c 0.493918,-0.87313 1.11311,-1.91492 1.375981,-2.31511 0.598583,-0.911254 0.178848,-0.938234 -0.869725,-0.0559 -0.718267,0.60438 -1.623602,2.74834 -1.623602,3.84491 0,0.46008 0.0919,0.33886 1.117346,-1.47388 z M 58.79798,101.0534 c 0,-0.36234 -1.403749,0.94238 -1.85837,1.72727 -0.529764,0.91463 -0.492453,0.8955 0.648124,-0.33211 0.665636,-0.71643 1.210246,-1.34425 1.210246,-1.39516 z m 72.22004,-0.79343 c -0.35349,-2.458754 -0.61917,-3.255684 -1.08538,-3.255684 -0.17353,0 -0.22867,0.33489 -0.14159,0.8599 0.18977,1.14407 1.34469,4.941244 1.46618,4.820524 0.0526,-0.0523 -0.055,-1.14344 -0.23921,-2.42474 z m -78.636196,-0.0988 c 0.85108,-1.612654 2.586265,-3.335174 4.167198,-4.136794 2.221714,-1.12654 4.442883,-2.5662 4.123491,-2.67266 -0.397769,-0.13259 -2.712455,0.41868 -4.450164,1.05986 -1.348227,0.49747 -1.434293,0.59376 -3.241146,3.62608 -1.020876,1.71327 -1.856139,3.203604 -1.856139,3.311854 0,0.52441 0.704313,-0.14156 1.25676,-1.18834 z m 62.159396,-0.560644 c -0.0845,-0.21107 -0.14716,-0.14838 -0.15985,0.15985 -0.0115,0.278914 0.0511,0.435184 0.13896,0.347264 0.0879,-0.0879 0.0973,-0.316124 0.0209,-0.507114 z m 10.18012,-1.73634 c -0.27381,-0.54571 -0.44951,-1.12718 -0.39046,-1.29217 0.19181,-0.53593 -1.51086,-2.72417 -3.18082,-4.08793 -1.98498,-1.62102 -5.69184,-3.4882 -6.68952,-3.36957 -0.636,0.0756 -0.29414,0.42591 3.23238,3.31209 2.16898,1.77515 4.65798,3.93481 5.5311,4.79924 0.87313,0.86445 1.67922,1.58495 1.79132,1.60112 0.11209,0.0162 -0.0202,-0.41708 -0.294,-0.96278 z m 12.80011,0.21764 c -0.60913,-1.17794 -4.35424,-6.82852 -5.69695,-8.59551 -0.85563,-1.126 -1.56055,-1.7359 -2.51355,-2.17474 l -1.32443,-0.60988 1.19063,0.16259 c 0.65484,0.0894 1.75617,0.30647 2.44739,0.48233 0.69123,0.17586 1.25677,0.2287 1.25677,0.11743 0,-0.34255 -1.66853,-1.63084 -2.64583,-2.04286 -2.07465,-0.87467 -11.24518,-1.40624 -14.43734,-0.83687 -2.21855,0.39571 -5.67099,1.33265 -5.67099,1.53902 0,0.0955 1.10133,0.51784 2.44739,0.93861 1.34607,0.42077 2.59739,0.88094 2.78071,1.02261 0.18361,0.14188 2.44143,0.27176 5.02708,0.28917 l 4.69377,0.0316 2.64584,1.17252 c 2.50576,1.11045 2.79751,1.32756 5.51078,4.10104 1.57573,1.61069 3.21856,3.43454 3.65074,4.053 0.90907,1.30093 1.21715,1.46991 0.63799,0.34994 z m -43.464203,-1.12512 c 0.3944,-0.60826 0.6579,-1.16511 0.58555,-1.23746 -0.1413,-0.1413 -0.61954,0.4476 -1.31211,1.61577 -0.69105,1.1656 -0.0622,0.83817 0.72656,-0.37831 z m 9.526503,-1.44889 c -0.17914,-0.0725 -0.53632,-0.0769 -0.79375,-0.01 -0.25744,0.0671 -0.11087,0.12639 0.32569,0.13178 0.43656,0.005 0.64719,-0.0495 0.46806,-0.12197 z m 28.7684,-0.75249 c -0.93618,-0.96588 -0.71718,-1.23479 0.40618,-0.49873 0.35868,0.23502 0.65215,0.30382 0.65215,0.1529 0,-0.39923 -2.03297,-2.07857 -3.61041,-2.98239 -2.94691,-1.68847 -7.75747,-3.27745 -5.45157,-1.80071 1.26583,0.81066 1.05299,1.00386 -0.66146,0.60042 -0.83674,-0.19691 -2.05713,-0.35181 -2.71198,-0.34424 -1.09884,0.0127 -1.13963,0.0365 -0.52916,0.30849 0.3638,0.16209 1.37583,0.61789 2.24895,1.01288 0.87313,0.395 3.16491,1.38152 5.09286,2.19228 1.92794,0.81075 3.83294,1.65182 4.23333,1.86903 1.18123,0.64081 1.28763,0.47695 0.33111,-0.50993 z m -49.462835,-0.15973 c -0.355962,-0.14216 -0.802447,-0.38732 -0.992187,-0.54479 -0.202322,-0.16791 -0.344982,-0.18022 -0.344982,-0.0298 0,0.2997 1.012438,0.83025 1.5875,0.8319 0.218281,5.3e-4 0.105632,-0.11518 -0.250331,-0.25735 z m 16.125332,-0.23714 c 0.32265,-0.20852 0.28846,-0.25724 -0.18282,-0.26053 -0.31884,-0.002 -0.65329,0.11501 -0.74322,0.26053 -0.2082,0.33686 0.40478,0.33686 0.92604,0 z m -0.52917,-2.16702 c 0,-0.34777 -0.60134,-0.13 -0.73318,0.2655 -0.0644,0.19335 0.0565,0.25248 0.3142,0.1536 0.23044,-0.0884 0.41898,-0.27703 0.41898,-0.4191 z m -41.671872,-0.6136 c 1.164167,-0.2196 3.073167,-0.63209 4.242223,-0.91664 4.346631,-1.05799 6.831139,-1.13754 11.89736,-0.38093 0.880731,0.13153 1.186259,0.0477 1.820656,-0.49982 0.747217,-0.64485 0.751496,-0.66367 0.215831,-0.95035 -0.300569,-0.16086 -0.703146,-0.2953 -0.894615,-0.29876 -1.771417,-0.032 -6.621472,-3.42303 -7.889263,-5.51604 -1.258522,-2.07771 -1.982967,-2.64655 -3.902088,-3.06395 -1.336596,-0.2907 -1.04562,0.28958 0.472734,0.94276 1.134186,0.48792 2.561256,1.72116 2.29721,1.9852 -0.04496,0.045 -1.386075,-0.27758 -2.980267,-0.71675 -5.468087,-1.50634 -6.585767,-1.63247 -6.811652,-0.76869 -0.08994,0.34393 -0.0081,0.52917 0.233725,0.52917 0.204658,0 0.372105,0.11609 0.372105,0.25797 0,0.14188 0.327421,0.19478 0.727604,0.11756 0.400182,-0.0772 1.203854,-0.0267 1.785937,0.11233 0.582083,0.139 0.820208,0.26706 0.529167,0.28457 -0.291042,0.0175 -2.136511,0.2057 -4.101042,0.4182 -1.964531,0.21249 -4.28625,0.40302 -5.159375,0.42339 l -1.587499,0.037 1.190625,0.25859 c 0.654843,0.14223 2.110204,0.48511 3.234134,0.76197 1.478724,0.36426 2.994726,0.50339 5.485193,0.50339 1.892927,0 4.307096,0.13438 5.364824,0.29863 2.00221,0.31091 5.145478,1.19973 5.332716,1.50792 0.05942,0.0978 -1.100148,0.18966 -2.576814,0.20413 -2.391809,0.0234 -2.985627,0.1338 -5.440637,1.01126 -3.876186,1.3854 -6.927278,2.95302 -6.73299,3.45932 0.188397,0.49096 0.263957,0.49092 2.874198,-0.002 z m 26.373523,-0.57024 c -0.60583,-1.13201 -3.026942,-13.92454 -3.622191,-19.13872 -0.224269,-1.96454 -0.457877,-3.75047 -0.519128,-3.96875 -0.06125,-0.21829 -0.241901,-1.82563 -0.401445,-3.57188 -0.372689,-4.07919 -0.470738,-4.303211 -1.100124,-2.51354 -1.0868,3.09033 -0.8988,10.152 0.458269,17.21349 1.008055,5.2454 2.490901,9.11945 4.532651,11.84191 0.678939,0.90529 1.111731,0.99656 0.651968,0.13749 z m 17.562892,-0.74177 c 0.28247,-0.21365 0.38751,-0.39224 0.23343,-0.39688 -0.15409,-0.005 -0.51128,0.1664 -0.79375,0.38005 -0.282483,0.21365 -0.387523,0.39225 -0.233433,0.39688 0.154083,0.005 0.511273,-0.1664 0.793753,-0.38005 z m -49.624956,-0.72649 c 0,-0.14552 -0.188332,-0.19231 -0.418515,-0.10398 -0.230183,0.0883 -0.475334,0.1606 -0.544781,0.1606 -0.06945,0 -0.0559,0.11386 0.03011,0.25303 0.189843,0.30717 0.933184,0.0605 0.933184,-0.30965 z m 47.509353,-0.22754 c 0.42741,-0.44734 1.440693,-1.21709 2.251743,-1.71057 0.81105,-0.49349 2.2398,-1.76268 3.175,-2.82044 0.9352,-1.05776 3.18864,-3.3633 5.00765,-5.12341 8.01506,-7.75556 14.02383,-12.15256 17.33021,-12.68165 1.02532,-0.16408 2.20448,-0.5492 3.57188,-1.16662 0.57852,-0.26122 0.52876,-0.27665 -0.39688,-0.12305 -2.22785,0.36968 -2.76095,0.3605 -2.6054,-0.0448 0.26845,-0.69957 -0.6379,-0.69921 -2.5791,0.001 l -1.92018,0.69264 1.23494,-1.32025 c 1.75423,-1.87541 2.68542,-4.023883 1.42609,-3.290313 -0.21026,0.122479 -2.21348,1.957763 -4.45161,4.078403 -2.23813,2.12063 -5.97432,5.64767 -8.30265,7.83786 -7.49122,7.04674 -14.883813,15.10563 -14.939593,16.2861 -0.0194,0.41073 0.44642,0.17162 1.1979,-0.61489 z m -46.125485,0.0196 0.567995,-0.52917 H 52.49787 c -0.318481,0 -0.579056,0.0498 -0.579056,0.11065 0,0.0609 -0.07227,0.29898 -0.160599,0.52917 -0.218013,0.56813 0.06726,0.52608 0.750717,-0.11065 z m 87.251548,-0.2417 c 0,-0.13293 -0.4958,-0.60631 -1.10177,-1.05195 -1.17564,-0.86457 -2.06863,-2.02095 -2.07149,-2.68246 -0.002,-0.44674 -1.63583,-0.52493 -2.9783,-0.14253 -0.90774,0.25856 -0.92051,0.50622 -0.0466,0.90439 0.37454,0.17065 1.11868,0.65373 1.65365,1.07351 1.91937,1.50609 4.54453,2.60308 4.54453,1.89904 z m -41.816883,-1.19504 c 0.8311,-1.20795 1.00023,-1.62467 0.5453,-1.34351 -0.45718,0.28256 -1.89198,2.51566 -1.61634,2.51566 0.14552,0 0.62749,-0.52747 1.07104,-1.17215 z m -41.394575,-0.54587 c 1.164166,-0.21726 2.401779,-0.46196 2.750248,-0.54377 1.220841,-0.28663 0.143026,-0.64633 -2.365666,-0.7895 -4.056626,-0.23152 -6.202613,-0.65514 -8.064637,-1.59198 -0.942157,-0.47402 -1.76743,-0.77382 -1.833938,-0.6662 -0.196301,0.31762 3.410424,2.92103 4.797489,3.46293 1.570394,0.61353 2.047898,0.62654 4.716504,0.12852 z m 49.815428,-2.32975 c 2.07037,-1.12848 8.23024,-5.51916 8.78978,-6.26526 0.0728,-0.097 0.82858,-0.73905 1.67961,-1.42673 5.39746,-4.36152 10.75581,-9.18033 10.75581,-9.6728 0,-0.28699 -3.7704,1.25292 -5.5007,2.24661 -4.70539,2.70223 -20.25542,16.52012 -18.59101,16.52012 0.16194,0 1.45186,-0.63087 2.86651,-1.40194 z m 29.63456,-1.37619 c -1.06915,-0.99136 -1.75287,-0.84466 -0.82773,0.17761 0.24083,0.26612 0.6861,0.48385 0.98948,0.48385 0.51595,0 0.50549,-0.0428 -0.16175,-0.66146 z m -49.1185,-4.96392 c -0.36802,-0.36802 -0.830448,0.006 -0.830448,0.67121 0,0.31397 0.208359,1.11062 0.463021,1.77033 l 0.463021,1.19947 0.07979,-1.69292 c 0.04388,-0.93111 -0.03504,-1.80775 -0.175384,-1.94809 z m -9.836462,2.00509 c -0.180126,-0.55546 -1.073192,-2.61726 -1.984589,-4.58179 -0.9114,-1.96453 -1.979523,-4.34578 -2.373609,-5.29167 -0.688713,-1.65305 -3.263151,-6.61458 -3.432175,-6.61458 -0.246306,0 1.104942,5.25523 1.904865,7.40833 1.272638,3.42549 2.007037,4.8152 3.774125,7.14184 0.829723,1.09246 1.656154,2.26437 1.836513,2.60426 0.482705,0.90966 0.652486,0.49805 0.27487,-0.66639 z m 22.061609,-1.03791 c 0.7049,-1.09717 1.227863,-2.04862 1.162153,-2.11433 -0.17389,-0.17389 -1.769473,1.49981 -2.168443,2.27462 -0.50444,0.97963 -0.73744,1.85327 -0.49161,1.84332 0.11894,-0.005 0.793,-0.90644 1.4979,-2.00361 z m -35.282631,-0.30274 c -0.0051,-0.49199 -1.911279,-1.34085 -10.184421,-4.5352 -1.164166,-0.44949 -2.785727,-1.22223 -3.603467,-1.71718 -0.817741,-0.49496 -1.770241,-0.9872 -2.116667,-1.09387 l -0.629865,-0.19395 0.661458,0.73194 c 0.908711,1.00554 3.949854,2.97255 7.060528,4.56673 2.790835,1.43027 4.003849,1.83149 6.535895,2.16187 2.29338,0.29924 2.278788,0.29873 2.276539,0.0797 z m -0.327639,-2.21639 c -0.421328,-1.15994 -2.859542,-4.9935 -3.17596,-4.9935 -0.131051,0 0.12451,0.68461 0.567915,1.52135 l 0.806193,1.52136 -1.513925,-1.65551 c -0.832657,-0.91053 -1.669777,-1.65467 -1.860266,-1.65364 -0.190776,0.001 -0.262986,0.13673 -0.160761,0.30213 0.137109,0.22185 -0.878129,0.25464 -3.886989,0.12553 l -4.072572,-0.17474 1.190625,0.51173 c 0.654844,0.28145 2.976562,1.24398 5.159375,2.13895 5.40336,2.21543 6.450623,2.69442 6.792983,3.10694 0.456325,0.54984 0.517319,0.25135 0.153382,-0.7506 z m 22.554447,-6.84558 c 0.451779,-2.11006 1.226524,-5.74146 1.721657,-8.069795 0.495131,-2.328333 1.21579,-5.602552 1.60146,-7.276042 0.38567,-1.673489 0.750836,-3.340364 0.811486,-3.704166 0.28464,-1.707413 -0.458516,0.723955 -1.112421,3.63951 -0.672388,2.997961 -1.834276,6.521008 -3.012183,9.133453 -0.737902,1.63657 -1.85638,6.57654 -1.859457,8.21266 -0.0026,1.35998 0.428114,2.50266 0.801918,2.12768 0.12437,-0.12477 0.595762,-1.95325 1.04754,-4.0633 z m 31.702876,-8.319365 c 2.86665,-1.908319 4.29194,-3.033961 3.85965,-3.048207 -0.15881,-0.0052 -1.28979,0.645329 -2.51327,1.445694 -1.22349,0.800364 -2.31877,1.455208 -2.43395,1.455208 -0.40486,0 -1.77549,1.16179 -1.77549,1.50496 0,0.19092 0.068,0.34712 0.15108,0.34712 0.0831,0 1.30349,-0.76715 2.71198,-1.704775 z m -48.452627,-2.19279 c -0.06708,-0.257432 -0.126381,-0.110869 -0.131773,0.325693 -0.0054,0.436563 0.04949,0.647188 0.12197,0.468057 0.07247,-0.179132 0.07689,-0.53632 0.0098,-0.79375 z m 53.401777,-1.343 c -0.0815,-0.08146 -0.29496,-1.68e-4 -0.47444,0.180653 -0.25936,0.261307 -0.22897,0.291698 0.14812,0.148113 0.26093,-0.09936 0.40778,-0.247304 0.32632,-0.328766 z M 71.225292,56.787623 c 0,-0.352778 -0.0285,-0.352778 -0.256479,0 -0.141065,0.218281 -0.256479,0.575468 -0.256479,0.79375 0,0.352777 0.02849,0.352777 0.256479,0 0.141065,-0.218282 0.256479,-0.575469 0.256479,-0.79375 z m 7.306437,128.256767 c -0.640747,-4.11243 -1.220029,-18.91842 -0.728287,-18.6145 0.523012,0.32324 0.796181,2.01968 1.367776,8.49419 0.377886,4.28032 0.762421,7.10456 1.179801,8.6651 l 0.619197,2.3151 h -1.152255 c -1.096108,0 -1.158783,-0.0419 -1.286232,-0.85989 z m 7.970046,-0.56507 c -2.346471,-3.53404 -5.618911,-11.11846 -6.216952,-14.40883 -0.348525,-1.91753 0.102846,-1.44176 1.523437,1.60581 3.158206,6.77523 4.526491,9.53471 5.779835,11.65642 0.754812,1.27777 1.372384,2.37909 1.372384,2.44739 0,0.0683 -0.340331,0.12417 -0.756291,0.12417 -0.621265,0 -0.925208,-0.2544 -1.702413,-1.42496 z m 12.462172,-2.08076 c 1.01425,-1.92815 2.510803,-4.81542 3.325673,-6.41615 2.34215,-4.6009 3.33993,-6.3338 3.33554,-5.793 -0.009,1.13029 -3.43214,9.24348 -5.58377,13.23476 -1.229443,2.2806 -1.400733,2.48011 -2.129273,2.48011 h -0.79226 z m 7.297403,2.38125 c 0.0897,-0.61847 0.27919,-3.38667 0.42115,-6.15157 0.34721,-6.76253 0.50717,-8.62516 0.95116,-11.07558 0.20725,-1.14386 0.37682,-2.12613 0.37682,-2.18281 0,-0.0567 0.11906,-0.10306 0.26458,-0.10306 0.36906,0 0.32811,4.01324 -0.13229,12.96458 -0.21331,4.14734 -0.38987,7.57039 -0.39236,7.60677 -0.002,0.0364 -0.37522,0.0661 -0.8283,0.0661 -0.81836,0 -0.82272,-0.007 -0.66076,-1.12447 z m 22.00845,-105.339004 -2.36256,-0.29589 1.00663,-0.35984 c 0.79312,-0.28351 2.02374,-0.31723 5.80214,-0.15898 l 4.79551,0.20086 -1.05833,0.48277 c -1.23129,0.56166 -4.34688,0.61157 -8.18339,0.13108 z m -40.082183,-4.28669 c 0.0127,-0.30823 0.07539,-0.37092 0.159851,-0.15985 0.07643,0.19099 0.06703,0.4192 -0.02088,0.50711 -0.08792,0.0879 -0.150452,-0.0684 -0.138964,-0.34726 z m 36.475853,-1.15651 c 0.7917,-0.73424 1.56561,-1.33143 1.7198,-1.32709 0.32846,0.009 -1.85505,1.99443 -2.63008,2.39119 -0.29104,0.14899 0.11858,-0.32985 0.91028,-1.0641 z m -59.434097,-5.74961 c -2.396772,-2.83428 -3.321568,-3.78458 -4.228435,-4.34505 -1.099175,-0.67933 -0.961512,-0.96683 0.235955,-0.49278 1.198028,0.47427 1.654501,0.9087 3.044579,2.89754 0.663009,0.94859 1.500521,2.11166 1.86114,2.5846 1.077121,1.41262 0.45502,0.9737 -0.913239,-0.64431 z M 84.221982,58.044393 c 0.119644,-0.618463 0.222721,-2.582994 0.229058,-4.365624 0.01088,-3.060916 0.04095,-3.241146 0.540689,-3.241146 0.656606,0 0.754396,0.600835 0.420232,2.58196 -0.151238,0.896626 -0.07595,0.82161 0.798957,-0.796023 0.66479,-1.229143 1.121029,-1.785937 1.46341,-1.785937 0.431525,0 0.324123,0.342008 -0.810106,2.579687 -0.719175,1.418828 -1.583124,3.38336 -1.919891,4.365625 -0.691999,2.018394 -1.047898,2.344293 -0.722349,0.661458 z m -1.200968,-2.290498 c 0.06525,-1.805477 0.118632,-3.740242 0.118632,-4.299479 0,-0.559236 0.09161,-1.016793 0.203578,-1.016793 0.230253,0 0.130458,2.995581 -0.211545,6.35 -0.210471,2.064339 -0.219557,1.979479 -0.110665,-1.033728 z m 18.904046,0.413098 c 0,-0.196232 2.09931,-4.226757 2.71509,-5.212769 0.17744,-0.28413 0.49333,-0.516601 0.70197,-0.516601 0.2836,0 0.24457,0.150263 -0.15462,0.595312 -0.29368,0.327422 -1.03791,1.547813 -1.65383,2.71198 -1.07939,2.04016 -1.60861,2.837006 -1.60861,2.422078 z m -1.973263,-0.96687 c 0.436733,-1.423888 0.637993,-2.560783 0.644033,-3.638021 l 0.006,-1.124479 h 1.05833 c 0.58208,0 1.05833,0.03954 1.05833,0.08786 0,0.04832 -0.54734,1.149649 -1.21631,2.447395 -1.28404,2.49094 -1.905233,3.383136 -1.550703,2.227248 z m -4.35515,-2.588186 c -0.0375,-0.589624 0.73186,-2.174314 1.05564,-2.174314 0.21673,0 0.22854,0.09987 0.0391,0.330729 -0.14926,0.181901 -0.45178,0.747448 -0.67227,1.256771 -0.2205,0.509323 -0.41061,0.773389 -0.42248,0.586814 z"
       id="path961" /></g><metadata
     id="metadata963"><rdf:RDF><cc:License
         rdf:about="http://creativecommons.org/publicdomain/zero/1.0/"><cc:permits
           rdf:resource="http://creativecommons.org/ns#Reproduction" /><cc:permits
           rdf:resource="http://creativecommons.org/ns#Distribution" /><cc:permits
           rdf:resource="http://creativecommons.org/ns#DerivativeWorks" /></cc:License><cc:Work
         rdf:about=""><cc:license
           rdf:resource="http://creativecommons.org/publicdomain/zero/1.0/" /><dc:title>Spiked hair</dc:title></cc:Work></rdf:RDF></metadata></svg>
